<svg xmlns="http://www.w3.org/2000/svg" viewBox="0 0 800 600" role="img" aria-label="Abstract merged portrait">
  <defs><linearGradient id="b" x1="0" y1="0" x2="1" y2="1"><stop stop-color="#ffbd59"/><stop offset="1" stop-color="#ff5c8a"/></linearGradient></defs>
  <rect width="800" height="600" rx="48" fill="#24154c"/><circle cx="400" cy="290" r="210" fill="url(#b)"/>
  <path d="M220 245Q400 20 580 245L530 135Q400 55 270 135Z" fill="#14213d"/>
  <ellipse cx="325" cy="280" rx="30" ry="38" fill="#fff"/><ellipse cx="475" cy="280" rx="30" ry="38" fill="#fff"/>
  <circle cx="335" cy="287" r="13" fill="#24154c"/><circle cx="465" cy="287" r="13" fill="#24154c"/>
  <path d="M325 390Q400 450 485 380" fill="none" stroke="#24154c" stroke-width="18" stroke-linecap="round"/>
  <path d="M285 225Q330 195 360 225M440 225Q475 190 520 220" fill="none" stroke="#24154c" stroke-width="18" stroke-linecap="round"/>
  <path d="M235 525Q400 430 565 525" fill="#36d6b1"/>
</svg>
